<?xml version="1.0" standalone="no"?><!DOCTYPE svg PUBLIC "-//W3C//DTD SVG 1.1//EN" "http://www.w3.org/Graphics/SVG/1.1/DTD/svg11.dtd"><svg t="1579794094421" class="icon" viewBox="0 0 1024 1024" version="1.1" xmlns="http://www.w3.org/2000/svg" p-id="11154" xmlns:xlink="http://www.w3.org/1999/xlink" width="64" height="64"><defs><style type="text/css"></style></defs><path d="M466 750c-48.6 0-95.7-9.5-140.1-28.3-42.9-18.1-81.4-44.1-114.4-77.1s-59-71.6-77.1-114.4C115.5 485.7 106 438.6 106 390c0-48.6 9.5-95.7 28.3-140.1 18.1-42.9 44.1-81.4 77.1-114.4s71.6-59 114.4-77.1C370.2 39.5 417.4 30 466 30s95.7 9.5 140.1 28.3c42.9 18.1 81.4 44.1 114.4 77.1s59 71.6 77.1 114.4C816.5 294.2 826 341.4 826 390c0 48.6-9.5 95.7-28.3 140.1-18.1 42.9-44.1 81.4-77.1 114.4s-71.6 59-114.4 77.1C561.7 740.5 514.6 750 466 750z m0-680c-176.4 0-320 143.6-320 320s143.6 320 320 320 320-143.6 320-320c0-176.5-143.6-320-320-320z" fill="#333333" p-id="11155"></path><path d="M891 817L707.1 633.2c-7.8-7.8-7.8-20.5 0-28.3 7.8-7.8 20.5-7.8 28.3 0l183.8 183.8c7.8 7.8 7.8 20.5 0 28.3-7.8 7.9-20.4 7.9-28.2 0z" fill="#333333" p-id="11156"></path></svg>