<?xml version="1.0" standalone="no"?><!DOCTYPE svg PUBLIC "-//W3C//DTD SVG 1.1//EN" "http://www.w3.org/Graphics/SVG/1.1/DTD/svg11.dtd"><svg t="1579791770956" class="icon" viewBox="0 0 1024 1024" version="1.1" xmlns="http://www.w3.org/2000/svg" p-id="10274" xmlns:xlink="http://www.w3.org/1999/xlink" width="64" height="64"><defs><style type="text/css"></style></defs><path d="M512 196.266667c-18.773333 0-34.133333-15.36-34.133333-34.133334v-51.2c0-18.773333 15.36-34.133333 34.133333-34.133333s34.133333 15.36 34.133333 34.133333v51.2c0 18.773333-15.36 34.133333-34.133333 34.133334zM520.533333 947.2c-42.666667 0-76.8-34.133333-76.8-76.8s34.133333-76.8 76.8-76.8 76.8 34.133333 76.8 76.8-34.133333 76.8-76.8 76.8z m0-85.333333c-5.12 0-8.533333 3.413333-8.533333 8.533333s3.413333 8.533333 8.533333 8.533333 8.533333-3.413333 8.533334-8.533333-3.413333-8.533333-8.533334-8.533333z" fill="#EB4AF4" p-id="10275"></path><path d="M768 827.733333c-18.773333 0-34.133333-15.36-34.133333-34.133333v-358.4c0-122.88-98.986667-221.866667-221.866667-221.866667s-221.866667 98.986667-221.866667 221.866667v358.4c0 18.773333-15.36 34.133333-34.133333 34.133333s-34.133333-15.36-34.133333-34.133333v-358.4c0-160.426667 129.706667-290.133333 290.133333-290.133333s290.133333 129.706667 290.133333 290.133333v358.4c0 18.773333-15.36 34.133333-34.133333 34.133333z" fill="#3793DF" p-id="10276"></path><path d="M853.333333 861.866667H170.666667c-18.773333 0-34.133333-15.36-34.133334-34.133334s15.36-34.133333 34.133334-34.133333h682.666666c18.773333 0 34.133333 15.36 34.133334 34.133333s-15.36 34.133333-34.133334 34.133334z" fill="#3793DF" p-id="10277"></path></svg>